<?xml version="1.0" standalone="no"?>
<!DOCTYPE svg PUBLIC "-//W3C//DTD SVG 20010904//EN"
 "http://www.w3.org/TR/2001/REC-SVG-20010904/DTD/svg10.dtd">
<svg version="1.0" xmlns="http://www.w3.org/2000/svg"
 width="512.000000pt" height="512.000000pt" viewBox="0 0 512.000000 512.000000"
 preserveAspectRatio="xMidYMid meet">
<metadata>
Created by potrace 1.14, written by Peter Selinger 2001-2017
</metadata>
<g transform="translate(0.000000,512.000000) scale(0.100000,-0.100000)"
fill="#000000" stroke="none">
<path d="M1410 3999 c-119 -13 -107 -3 -751 -647 -674 -673 -654 -649 -654
-787 0 -150 -36 -107 638 -782 595 -596 648 -644 725 -660 148 -30 295 39 362
173 20 40 25 64 25 129 0 148 21 121 -513 657 l-475 477 469 469 c346 346 476
482 494 518 21 42 25 63 25 139 -1 74 -5 98 -24 135 -63 123 -191 194 -321
179z"/>
<path d="M3608 3994 c-98 -25 -180 -93 -222 -183 -16 -35 -20 -65 -20 -126 1
-140 -13 -122 515 -651 l471 -471 -454 -454 c-249 -250 -466 -470 -481 -490
-34 -46 -61 -147 -54 -210 11 -96 82 -205 162 -247 50 -25 120 -40 178 -36
118 6 113 2 761 651 674 674 651 647 650 788 -1 139 25 108 -653 786 -565 566
-610 608 -662 627 -71 26 -132 31 -191 16z"/>
<path d="M2666 3974 c-91 -28 -154 -81 -197 -167 -12 -22 -22 -49 -24 -61 -2
-12 -11 -61 -20 -111 -9 -49 -25 -142 -36 -205 -19 -109 -23 -131 -34 -190 -2
-14 -22 -128 -45 -255 -22 -126 -42 -239 -44 -250 -4 -20 -15 -87 -22 -135 -2
-14 -9 -45 -14 -70 -5 -25 -12 -61 -14 -80 -3 -19 -7 -44 -10 -55 -2 -11 -7
-40 -11 -65 -4 -25 -9 -54 -11 -65 -3 -11 -7 -36 -10 -55 -3 -19 -7 -42 -9
-50 -2 -8 -6 -28 -9 -45 -12 -72 -46 -272 -51 -295 -3 -14 -12 -65 -21 -115
-23 -134 -23 -138 -29 -165 -3 -14 -6 -50 -6 -81 1 -214 210 -363 417 -298
108 34 202 143 217 254 4 22 13 76 21 120 9 44 18 96 21 115 3 19 15 87 26
150 12 63 23 126 25 140 6 35 43 241 48 265 2 11 7 40 11 65 11 66 10 62 66
375 28 160 53 304 56 320 4 27 25 147 38 220 51 276 78 443 79 485 4 115 -79
242 -190 291 -57 26 -157 31 -218 13z"/>
</g>
</svg>
